# xmcd
#
# Track frame offsets:
# 150
# 11604
# 24412
# 33956
# 47459
# 63709
# 77160
# 90689
# 101869
# 113413
# 125006
# 136499
# 148878
# 161300
# 179063
# 193564
# 204537
# 217321
# 230289
# 256983
# 267665
# 285536
# 297390
# 309246
# 332657
# 348963
#
# Disc length: 4713 seconds
#
# Revision: 0
# Processed by: cddbd v1.5.1PL0 Copyright (c) Steve Scherf et al.
# Submitted via: Audion 3.0.2 (http://www.panic.com/audion/)
#
DISCID=8a12671a
DTITLE=Compilation - Soul/Funk/Boogaloo
DYEAR=1900
DGENRE=
TTITLE0=Abraham and the Casanovas/The Kangaroo(part2)
TTITLE1=Al Escobar/Tighten Up
TTITLE2=Andy Williams/ House of Mambo
TTITLE3=Big Bo Thomas and the Arrows/How About It
TTITLE4=Big Boss Man/Party 7
TTITLE5=Billy Stewart/Secret Love
TTITLE6=Botho Lucas Singers und die Sound Masters/Zigarrillo
TTITLE7=Calypso King and Soul Investigators/Soul Strikel
TTITLE8=Duffy Power/I Saw Her Standing There
TTITLE9=Eileen/Ces bottes son Faites pour Marcher
TTITLE10=Ella Fitzgerald/Get Ready
TTITLE11=France Gall/Avant la Bagarre
TTITLE12=HBP Mix/Light My fire
TTITLE13=Jamie  and The Merrietones/Soul BossA NOVA
TTITLE14=Jean Jacques Perrey/E.V.R.
TTITLE15=John Schroeder/Papa's Got a Brand New Bag
TTITLE16=Lord Sitar/ Black is Black
TTITLE17=Richard Anthony/ La Bourse et La Vie
TTITLE18=Silvetti/ Spring Rain
TTITLE19=Just Brothers/ Sliced Tomatoes
TTITLE20=Sugarman Three/Turtle Walk
TTITLE21=The Coasters/Love Potion n°9
TTITLE22=The Mohawks/Tramp
TTITLE23=The New Masters Sounds/Nervous
TTITLE24=Tito Puente - Hit The Bongo
TTITLE25=Tom Jones/Coke Comercial
EXTD=
EXTT0=
EXTT1=
EXTT2=
EXTT3=
EXTT4=
EXTT5=
EXTT6=
EXTT7=
EXTT8=
EXTT9=
EXTT10=
EXTT11=
EXTT12=
EXTT13=
EXTT14=
EXTT15=
EXTT16=
EXTT17=
EXTT18=
EXTT19=
EXTT20=
EXTT21=
EXTT22=
EXTT23=
EXTT24=
EXTT25=
PLAYORDER=
